<svg width="410" height="459" viewBox="0 0 410 459" fill="none" xmlns="http://www.w3.org/2000/svg">
<path fill-rule="evenodd" clip-rule="evenodd" d="M407.283 363.172C397.341 411.816 358.813 438.161 321.784 453.587C289.033 467.231 251.807 447.406 215.421 443.1C176.299 438.471 137.462 452.599 100.828 427.442C58.7604 398.553 12.3782 354.301 2.21794 296.69C-7.92194 239.195 33.4045 200.685 52.4291 153.011C68.1624 113.585 76.4878 68.4297 103.813 42.1029C133.15 13.8383 170.004 -2.02304 209.734 1.45504C251.542 5.11499 297.524 20.5728 329.257 61.8388C360.017 101.838 357.95 160.098 371.26 211.501C384.621 263.1 417.133 314.98 407.283 363.172Z" fill="#3282B8"/>
</svg>
